<?xml version="1.0" encoding="iso-8859-1"?>
<!-- Generator: Adobe Illustrator 19.0.0, SVG Export Plug-In . SVG Version: 6.00 Build 0)  -->
<svg version="1.1" id="Capa_1" xmlns="http://www.w3.org/2000/svg" xmlns:xlink="http://www.w3.org/1999/xlink" x="0px" y="0px"
	 viewBox="0 0 342.3 342.3" style="enable-background:new 0 0 342.3 342.3;" xml:space="preserve">
<polygon style="fill:#ED664C;" points="269.65,235.8 171.15,332.4 72.65,235.8 129.65,235.8 129.65,103 212.65,103 212.65,235.8 "/>
<path d="M269.65,226h-47.5V103c0-5.5-4-10-9.5-10h-83c-5.5,0-9.5,4.4-9.5,10v123h-47.5c-4.1,0-7.7,2.4-9.3,6.1
	c-1.5,3.8-0.6,8,2.3,10.9l98.5,96.5c1.9,1.9,4.5,2.8,7,2.8s5.1-1,7-2.9l98.5-96.5c2.9-2.8,3.8-7.1,2.3-10.8
	C277.35,228.4,273.75,226,269.65,226z M171.15,318.5l-74-72.5h32.5c5.5,0,10.5-4.7,10.5-10.2V113h62v122.8c0,5.5,5,10.2,10.5,10.2
	h32.5L171.15,318.5z"/>
<path d="M129.65,82h83c5.5,0,10-4.5,10-10s-4.5-10-10-10h-83c-5.5,0-10,4.5-10,10S124.15,82,129.65,82z"/>
<path d="M129.65,51h83c5.5,0,10-4.5,10-10s-4.5-10-10-10h-83c-5.5,0-10,4.5-10,10S124.15,51,129.65,51z"/>
<path d="M129.65,20h83c5.5,0,10-4.5,10-10s-4.5-10-10-10h-83c-5.5,0-10,4.5-10,10S124.15,20,129.65,20z"/>
<g>
</g>
<g>
</g>
<g>
</g>
<g>
</g>
<g>
</g>
<g>
</g>
<g>
</g>
<g>
</g>
<g>
</g>
<g>
</g>
<g>
</g>
<g>
</g>
<g>
</g>
<g>
</g>
<g>
</g>
</svg>
